# xmcd CD database file
#
# Track frame offsets:
#	150
#	16097
#	30878
#	45008
#	57646
#	72208
#	84827
#	99261
#	113443
#	126918
#	143519
#	158521
#	174439
#	190716
#	204608
#	217689
#	232073
#	244734
#	255620
#	270066
#	286057
#	300212
#	316030
#	329384
#	342877
#
# Disc length: 4748 seconds
#
# Revision: 0
# Processed by: cddbd v1.5.2PL0 Copyright (c) Steve Scherf et al.
# Submitted via: CDex 1.84
#
DISCID=2c128a19
DTITLE=Charlie Parker - with Strings
DYEAR=1900
DGENRE=Jazz
TTITLE0=Just Friends
TTITLE1=Everything Happens To Me
TTITLE2=April In Paris
TTITLE3=Summertime
TTITLE4=I Didn't Know What Time It Was
TTITLE5=If I Should Lose You
TTITLE6=Dancing In The Dark
TTITLE7=Out Of Nowhere
TTITLE8=Laura
TTITLE9=East Of The Sun
TTITLE10=They Can't Take That Away From Me
TTITLE11=Easy To Love
TTITLE12=I'm In The Mood For Love
TTITLE13=I'll Remember April
TTITLE14=What Is This Thing Called Love?
TTITLE15=April In Paris
TTITLE16=Repetition
TTITLE17=Easy To Love
TTITLE18=Rocker
TTITLE19=Temptation
TTITLE20=Lover
TTITLE21=Autumn In New York
TTITLE22=Stella By Starlight
TTITLE23=Repettion
TTITLE24=Laura
EXTD=
EXTT0=
EXTT1=
EXTT2=
EXTT3=
EXTT4=
EXTT5=
EXTT6=
EXTT7=
EXTT8=
EXTT9=
EXTT10=
EXTT11=
EXTT12=
EXTT13=
EXTT14=
EXTT15=
EXTT16=
EXTT17=
EXTT18=
EXTT19=
EXTT20=
EXTT21=
EXTT22=
EXTT23=
EXTT24=
PLAYORDER=
